<?xml version="1.0" standalone="no"?>
<!DOCTYPE svg PUBLIC "-//W3C//DTD SVG 20010904//EN"
 "http://www.w3.org/TR/2001/REC-SVG-20010904/DTD/svg10.dtd">
<svg version="1.0" xmlns="http://www.w3.org/2000/svg"
 width="2414.000000pt" height="926.000000pt" viewBox="0 0 2414.000000 926.000000"
 preserveAspectRatio="xMidYMid meet">

<g transform="translate(0.000000,926.000000) scale(0.100000,-0.100000)"
fill="#000000" stroke="none">
<path d="M3940 9183 c-198 -15 -567 -80 -752 -134 -76 -21 -142 -39 -148 -39
-24 0 -396 -143 -520 -200 -595 -273 -1101 -666 -1540 -1200 -262 -318 -496
-718 -645 -1100 -117 -302 -189 -562 -239 -865 -50 -300 -59 -454 -31 -522 25
-60 79 -117 141 -148 l59 -30 1905 0 1905 0 47 22 c61 28 133 104 152 161 14
41 16 254 16 1941 l0 1896 -24 51 c-57 122 -168 179 -326 167z"/>
<path d="M5175 9151 c-75 -19 -152 -84 -189 -161 l-21 -45 0 -1905 c0 -1787 1
-1907 17 -1943 28 -62 73 -111 130 -143 l53 -29 1920 0 1920 0 49 25 c61 31
120 103 143 176 15 49 16 67 4 182 -38 390 -131 795 -251 1100 -27 70 -50 130
-50 135 0 18 -208 431 -268 532 -264 443 -612 844 -1016 1170 -91 74 -403 290
-435 303 -9 3 -51 28 -95 55 -214 133 -614 306 -896 388 -265 77 -501 125
-763 154 -148 16 -204 17 -252 6z"/>
<path d="M8750 4354 c-19 -2 -96 -11 -170 -19 -74 -9 -155 -19 -180 -24 -25
-5 -72 -15 -105 -21 -266 -52 -610 -157 -850 -260 -375 -160 -811 -431 -1100
-683 -625 -545 -1066 -1214 -1298 -1972 -104 -340 -177 -735 -177 -958 0 -110
18 -156 83 -221 84 -83 -95 -76 2041 -76 l1901 0 50 24 c64 30 112 78 141 141
l24 50 0 1895 c0 1268 -4 1907 -10 1932 -17 61 -84 137 -147 165 -54 25 -132
35 -203 27z"/>
<path d="M271 4279 c-94 -18 -188 -104 -212 -193 -25 -89 16 -449 86 -760 36
-157 120 -429 178 -576 44 -112 169 -389 187 -415 4 -5 29 -50 55 -100 63
-117 177 -299 278 -438 44 -62 83 -114 86 -117 4 -3 24 -27 46 -55 167 -212
439 -483 670 -666 128 -101 232 -179 240 -179 4 0 28 -15 54 -34 213 -156 684
-387 999 -492 344 -113 803 -203 1048 -206 83 -1 95 1 150 31 65 34 122 99
143 160 8 25 11 535 11 1932 l0 1897 -33 64 c-42 81 -113 134 -202 148 -75 12
-3721 12 -3784 -1z"/>
<path d="M20452 4024 c-105 -19 -164 -39 -274 -97 -214 -110 -372 -314 -440
-567 -20 -73 -23 -110 -23 -260 0 -164 2 -182 29 -275 48 -165 112 -280 220
-394 146 -153 344 -247 570 -270 284 -29 558 65 750 255 106 106 195 262 238
419 19 69 22 105 22 265 0 160 -3 196 -22 265 -53 191 -163 363 -306 479 -57
47 -199 123 -271 147 -148 48 -343 61 -493 33z m313 -259 c151 -32 292 -128
373 -254 114 -178 142 -462 67 -684 -66 -195 -223 -343 -416 -393 -83 -22
-225 -22 -309 0 -200 51 -350 193 -426 401 -58 160 -53 399 12 563 112 282
395 431 699 367z"/>
<path d="M22809 3974 c-12 -27 -46 -107 -76 -179 -59 -141 -133 -315 -220
-520 -30 -71 -72 -170 -93 -220 -59 -141 -90 -208 -94 -204 -2 2 -34 85 -71
184 -37 99 -123 331 -191 515 -69 184 -135 362 -148 395 l-24 60 -146 3 c-123
2 -146 0 -146 -12 0 -13 45 -133 205 -541 23 -60 75 -193 115 -295 39 -102 87
-223 105 -270 19 -47 70 -179 115 -295 143 -371 162 -415 182 -415 22 0 27 9
142 285 293 703 365 870 372 865 10 -6 55 -108 294 -680 29 -69 78 -186 110
-260 31 -74 63 -152 71 -172 10 -29 18 -38 36 -38 26 0 22 -7 87 160 58 150
218 562 261 670 18 47 61 157 95 245 62 160 86 223 219 562 39 100 71 184 71
187 0 9 -283 7 -296 -2 -5 -4 -17 -27 -26 -52 -9 -25 -66 -178 -127 -340 -60
-162 -146 -394 -191 -515 -45 -121 -86 -227 -90 -235 -7 -11 -13 -6 -25 25
-10 22 -41 96 -70 165 -29 69 -83 197 -120 285 -37 88 -86 205 -110 260 -23
55 -71 168 -105 250 -35 83 -69 156 -76 164 -11 12 -16 7 -35 -35z"/>
<path d="M10741 3863 c-499 -1039 -798 -1669 -794 -1675 2 -5 73 -8 157 -8
l153 0 78 180 78 180 414 0 414 0 24 -53 c13 -29 48 -108 78 -177 l54 -125
161 -3 c115 -2 162 1 162 9 0 13 -8 30 -270 574 -591 1229 -596 1240 -618
1243 -17 3 -31 -20 -91 -145z m149 -523 c27 -63 90 -209 142 -325 l95 -210
-290 -3 c-160 -1 -292 0 -295 2 -6 7 10 47 128 306 56 124 113 253 127 288 14
35 30 61 36 59 5 -1 31 -54 57 -117z"/>
<path d="M11875 3998 c-3 -7 -4 -418 -3 -913 l3 -900 405 0 405 0 0 125 0 125
-262 3 -263 2 0 785 0 785 -140 0 c-103 0 -142 -3 -145 -12z"/>
<path d="M12950 3095 l0 -916 143 3 142 3 3 333 2 332 33 0 c91 1 271 22 337
41 208 57 338 191 385 394 26 111 22 273 -10 372 -62 197 -205 305 -455 343
-36 5 -181 10 -322 10 l-258 0 0 -915z m525 654 c141 -26 225 -114 245 -259 9
-63 -4 -159 -27 -204 -64 -126 -168 -176 -363 -176 l-90 0 0 325 0 325 88 0
c49 0 115 -5 147 -11z"/>
<path d="M14262 3098 l3 -913 143 -3 142 -3 0 420 0 420 315 3 315 3 2 -420 3
-420 143 -3 142 -3 0 916 0 915 -145 0 -145 0 0 -372 0 -373 -312 2 -313 2 -3
371 -2 370 -145 0 -145 0 2 -912z"/>
<path d="M16420 3868 c-501 -1046 -800 -1674 -800 -1680 0 -5 71 -7 157 -6
l158 3 62 140 c35 77 70 157 78 178 l15 37 416 -2 415 -3 78 -175 77 -175 162
-3 c89 -1 162 1 162 6 0 5 -39 90 -86 188 -48 98 -198 411 -334 694 -441 919
-451 940 -472 940 -15 0 -35 -33 -88 -142z m154 -543 c30 -71 93 -215 140
-320 47 -104 86 -193 86 -197 0 -5 -133 -8 -295 -8 -162 0 -295 1 -295 3 0 2
40 91 88 198 48 107 115 255 148 331 32 75 62 133 66 130 3 -4 31 -65 62 -137z"/>
<path d="M17550 3095 l0 -915 140 0 140 0 0 410 0 410 23 5 c12 3 113 5 225 3
l203 -3 -3 125 -3 125 -220 5 -220 5 0 245 0 245 290 5 290 5 0 120 0 120
-432 3 -433 2 0 -915z"/>
<path d="M18712 3098 l3 -913 403 0 403 0 0 117 c0 65 -2 122 -6 128 -4 6 -98
10 -261 10 l-254 0 0 785 0 785 -145 0 -145 0 2 -912z"/>
</g>
</svg>
